<svg width="20" height="20" viewBox="0 0 20 20" xmlns="http://www.w3.org/2000/svg">
<g clip-path="url(#clip0_6_2)">
<path fill-rule="evenodd" clip-rule="evenodd" d="M10.1603 4.35188C13.4647 4.39875 16.1756 7.36969 17.5334 9.92594C17.5334 9.92594 17.0556 10.9038 16.6075 11.5297C16.3906 11.8325 16.1625 12.1275 15.9228 12.4128C15.7519 12.6159 15.5753 12.8138 15.3922 13.0059C13.7556 14.7247 11.4053 16.0069 8.92344 15.5091C6.16625 14.9559 3.91719 12.5934 2.56532 10.0525C2.56532 10.0525 3.04532 9.07375 3.49594 8.44875C3.69782 8.16844 3.90969 7.89563 4.13157 7.63094C4.30157 7.42813 4.47782 7.23032 4.66 7.03813C6.10594 5.51438 7.96125 4.34125 10.1603 4.35188ZM10.1488 5.60188C8.30813 5.595 6.7775 6.62282 5.56657 7.89875C5.40188 8.07219 5.24313 8.25094 5.08938 8.43407C4.88719 8.67532 4.69407 8.92438 4.51 9.17969C4.32594 9.43469 4.13719 9.75657 3.9875 10.03C5.17938 12.0328 6.96844 13.8419 9.16938 14.2834C11.2203 14.695 13.1344 13.5644 14.4869 12.1441C14.6522 11.9706 14.8119 11.7916 14.9663 11.6081C15.185 11.3478 15.3931 11.0788 15.5909 10.8022C15.7741 10.5463 15.9625 10.2238 16.1119 9.95C14.875 7.87969 12.7588 5.6425 10.1488 5.60188Z" />
<path fill-rule="evenodd" clip-rule="evenodd" d="M10.0494 7.48375C11.4322 7.48375 12.555 8.60656 12.555 9.98906C12.555 11.3719 11.4322 12.4944 10.0494 12.4944C8.66688 12.4944 7.54407 11.3719 7.54407 9.98906C7.54407 8.60656 8.66688 7.48375 10.0494 7.48375ZM10.0494 8.73656C10.7409 8.73656 11.3022 9.29781 11.3022 9.98906C11.3022 10.6806 10.7409 11.2419 10.0494 11.2419C9.35813 11.2419 8.79688 10.6806 8.79688 9.98906C8.79688 9.29781 9.35813 8.73656 10.0494 8.73656Z" />
</g>
<defs>
<clipPath id="clip0_6_2">
<rect width="20" height="20" fill="white"/>
</clipPath>
</defs>
</svg>
